<?xml version="1.0" encoding="UTF-8"?>
<svg xmlns="http://www.w3.org/2000/svg" xmlns:xlink="http://www.w3.org/1999/xlink" width="375pt" height="374.999991pt" viewBox="0 0 375 374.999991" version="1.2">
<defs>
<clipPath id="clip1">
  <path d="M 8 10.3125 L 373 10.3125 L 373 184.3125 L 8 184.3125 Z M 8 10.3125 "/>
</clipPath>
</defs>
<g id="surface1">
<g clip-path="url(#clip1)" clip-rule="nonzero">
<path style=" stroke:none;fill-rule:evenodd;fill:rgb(32.939148%,32.939148%,32.939148%);fill-opacity:1;" d="M 257.03125 167.546875 L 257.03125 168.226562 L 198.988281 184.3125 L 215.03125 126.839844 L 214.503906 126.464844 L 330.664062 10.539062 L 372.511719 52.226562 Z M 244.394531 156.292969 L 227.066406 138.925781 L 220.179688 163.089844 Z M 42.949219 163.695312 L 34.398438 178.496094 L 17.296875 178.496094 L 8.746094 163.695312 L 17.296875 148.667969 L 34.398438 148.667969 Z M 102.128906 163.695312 L 93.574219 178.496094 L 76.472656 178.496094 L 67.921875 163.695312 L 76.472656 148.667969 L 93.574219 148.667969 Z M 161.304688 163.695312 L 152.753906 178.496094 L 135.652344 178.496094 L 127.097656 163.695312 L 135.652344 148.667969 L 152.753906 148.667969 Z M 309.550781 52.527344 L 235.617188 126.3125 L 256.578125 147.230469 L 330.4375 73.449219 Z M 330.210938 31.535156 L 319.613281 42.03125 L 340.578125 62.949219 L 351.09375 52.378906 Z M 330.210938 31.535156 "/>
</g>
</g>
</svg>
