<?xml version="1.0" encoding="UTF-8"?>
<svg xmlns="http://www.w3.org/2000/svg" xmlns:xlink="http://www.w3.org/1999/xlink" width="375pt" height="374.999991pt" viewBox="0 0 375 374.999991" version="1.2">
<defs>
<clipPath id="clip1">
  <path d="M 20 9 L 364.480469 9 L 364.480469 336 L 20 336 Z M 20 9 "/>
</clipPath>
</defs>
<g id="surface1">
<g clip-path="url(#clip1)" clip-rule="nonzero">
<path style=" stroke:none;fill-rule:nonzero;fill:rgb(0%,0%,0%);fill-opacity:1;" d="M 363.941406 11.769531 C 363.402344 10.695312 363.402344 10.695312 362.863281 10.15625 C 362.324219 9.617188 361.785156 9.617188 361.246094 9.617188 C 360.707031 9.617188 360.167969 9.617188 359.632812 9.617188 L 359.09375 9.617188 C 358.554688 9.617188 358.015625 9.617188 357.476562 10.15625 L 356.9375 10.15625 L 22.957031 190.484375 C 20.800781 191.5625 19.726562 193.714844 20.265625 195.867188 C 20.800781 198.019531 21.878906 199.636719 24.035156 200.710938 L 149.007812 241.621094 L 149.007812 330.441406 C 149.007812 332.59375 150.625 334.746094 152.777344 335.824219 L 154.394531 335.824219 C 156.011719 335.824219 158.164062 334.746094 158.703125 333.132812 L 195.335938 276.074219 C 196.949219 273.382812 196.410156 270.152344 193.71875 268.539062 C 191.023438 266.921875 187.792969 267.460938 186.175781 270.152344 L 159.78125 312.140625 L 159.78125 244.851562 L 304.6875 293.300781 C 305.226562 293.300781 305.761719 293.835938 306.300781 293.835938 C 307.378906 293.835938 307.917969 293.835938 308.996094 293.300781 C 310.074219 292.761719 311.148438 291.144531 311.6875 289.53125 L 363.941406 15 L 363.941406 13.386719 C 364.480469 12.847656 364.480469 12.308594 363.941406 11.769531 Z M 333.773438 33.839844 L 153.855469 231.394531 L 38.578125 193.175781 Z M 302.53125 281.457031 L 165.167969 235.164062 L 350.472656 31.6875 Z M 302.53125 281.457031 "/>
</g>
<path style=" stroke:none;fill-rule:nonzero;fill:rgb(0%,0%,0%);fill-opacity:1;" d="M 324.078125 89.285156 C 321.386719 88.746094 318.152344 90.902344 317.613281 93.59375 L 314.382812 109.203125 C 313.84375 111.894531 316 115.125 318.691406 115.660156 L 319.769531 115.660156 C 322.460938 115.660156 324.617188 114.046875 325.15625 111.355469 L 328.386719 95.746094 C 328.925781 92.515625 326.773438 89.824219 324.078125 89.285156 Z M 324.078125 89.285156 "/>
<path style=" stroke:none;fill-rule:nonzero;fill:rgb(0%,0%,0%);fill-opacity:1;" d="M 316.535156 128.042969 C 313.84375 127.503906 310.613281 129.65625 310.074219 132.347656 L 285.292969 262.617188 C 284.753906 265.308594 286.910156 268.539062 289.601562 269.074219 L 290.679688 269.074219 C 293.375 269.074219 295.527344 267.460938 296.066406 264.769531 L 320.847656 134.503906 C 321.386719 131.273438 319.230469 128.582031 316.535156 128.042969 Z M 316.535156 128.042969 "/>
</g>
</svg>
