<?xml version="1.0" encoding="UTF-8"?>
<svg xmlns="http://www.w3.org/2000/svg" xmlns:xlink="http://www.w3.org/1999/xlink" width="375pt" height="374.999991pt" viewBox="0 0 375 374.999991" version="1.2">
<g id="surface1">
<path style=" stroke:none;fill-rule:nonzero;fill:rgb(32.939148%,32.939148%,32.939148%);fill-opacity:1;" d="M 271.234375 39.84375 C 268.984375 37.59375 265.34375 37.59375 263.09375 39.84375 L 240.058594 62.878906 C 237.8125 65.128906 237.8125 68.773438 240.058594 71.023438 C 241.183594 72.148438 242.65625 72.710938 244.132812 72.710938 C 245.605469 72.710938 247.078125 72.148438 248.203125 71.023438 L 271.234375 47.988281 C 273.484375 45.738281 273.484375 42.09375 271.234375 39.84375 Z M 271.234375 39.84375 "/>
<path style=" stroke:none;fill-rule:nonzero;fill:rgb(32.939148%,32.939148%,32.939148%);fill-opacity:1;" d="M 258.527344 89.988281 C 260 89.988281 261.472656 89.425781 262.597656 88.300781 L 285.632812 65.265625 C 287.878906 63.015625 287.878906 59.371094 285.632812 57.121094 C 283.382812 54.871094 279.738281 54.871094 277.488281 57.121094 L 254.457031 80.15625 C 252.207031 82.40625 252.207031 86.050781 254.457031 88.300781 C 255.582031 89.425781 257.054688 89.988281 258.527344 89.988281 Z M 258.527344 89.988281 "/>
<path style=" stroke:none;fill-rule:nonzero;fill:rgb(32.939148%,32.939148%,32.939148%);fill-opacity:1;" d="M 341.371094 53.761719 L 256.207031 119.789062 L 208.746094 73.15625 L 255.976562 15.902344 C 258 13.449219 257.652344 9.820312 255.199219 7.792969 C 252.75 5.773438 249.117188 6.121094 247.09375 8.574219 L 193.140625 73.972656 L 200.226562 80.933594 C 200.042969 81.070312 199.84375 81.179688 199.667969 81.328125 C 179.96875 97.980469 152.226562 100.875 135.308594 100.875 C 133.59375 100.875 131.996094 100.84375 130.523438 100.796875 C 130.394531 100.792969 130.265625 100.792969 130.136719 100.792969 C 124.613281 100.792969 118.988281 104.578125 117.417969 109.878906 L 77.601562 243.898438 C 22.980469 270.972656 20.683594 281.894531 19.808594 286.097656 C 19.109375 289.4375 19.925781 292.675781 22.105469 295.210938 C 31.21875 305.828125 47.859375 302.523438 58.863281 300.347656 L 61.640625 299.804688 C 63.316406 299.492188 66.046875 298.796875 69.828125 297.835938 C 104.523438 289.019531 124.761719 286.882812 129.957031 291.488281 C 130.261719 291.757812 130.71875 292.164062 130.507812 293.789062 C 129.9375 298.175781 125.496094 301.863281 120.792969 305.765625 C 117.089844 308.832031 113.261719 312.011719 110.636719 316.066406 C 104.839844 325.027344 103.902344 332.488281 107.855469 338.242188 C 115.460938 349.324219 138.613281 349.878906 185.285156 340.085938 C 186.859375 339.757812 188.085938 339.5 188.878906 339.347656 C 243.371094 329.054688 277.542969 330.648438 290.464844 344.085938 C 295.820312 349.65625 297.246094 357.488281 294.824219 368.03125 C 294.113281 371.132812 296.046875 374.222656 299.148438 374.933594 C 299.582031 375.03125 300.015625 375.082031 300.441406 375.082031 C 303.066406 375.082031 305.4375 373.273438 306.050781 370.609375 C 309.363281 356.183594 306.910156 344.574219 298.765625 336.101562 C 274.972656 311.355469 208.5625 323.90625 186.742188 328.03125 C 185.898438 328.1875 184.597656 328.460938 182.921875 328.8125 C 128.128906 340.308594 118.875 333.949219 117.351562 331.722656 C 116.355469 330.277344 117.488281 326.675781 120.308594 322.324219 C 121.972656 319.75 124.96875 317.265625 128.144531 314.632812 C 134.0625 309.71875 140.777344 304.152344 141.929688 295.269531 C 142.75 288.921875 140.027344 285.023438 137.597656 282.867188 C 127.308594 273.753906 101.933594 277.792969 66.988281 286.667969 C 63.6875 287.511719 60.828125 288.238281 59.515625 288.484375 C 58.605469 288.65625 57.636719 288.847656 56.625 289.046875 C 48.441406 290.667969 36.175781 293.105469 31.1875 288.085938 C 32 285.988281 38.441406 275.542969 89.007812 251.136719 L 89.957031 250.675781 C 91.066406 250.140625 91.914062 249.292969 92.46875 248.292969 L 216.625 209.761719 C 222.019531 208.085938 226.019531 202.15625 225.894531 196.492188 C 225.050781 156.820312 237.726562 137.019531 246.476562 128.128906 C 246.777344 127.824219 247.023438 127.496094 247.285156 127.175781 L 255.3125 135.0625 L 348.429688 62.867188 C 350.941406 60.917969 351.402344 57.296875 349.453125 54.785156 C 347.5 52.269531 343.878906 51.816406 341.371094 53.761719 Z M 175.03125 167.742188 C 173.976562 167.742188 172.953125 167.613281 171.957031 167.394531 L 95.894531 241 L 87.898438 232.710938 L 162.578125 160.4375 C 161.375 158.335938 160.636719 155.9375 160.636719 153.34375 C 160.636719 145.394531 167.082031 138.945312 175.03125 138.945312 C 182.976562 138.945312 189.429688 145.394531 189.429688 153.34375 C 189.429688 161.289062 182.976562 167.742188 175.03125 167.742188 Z M 175.03125 167.742188 "/>
</g>
</svg>
