<?xml version="1.0" encoding="UTF-8"?>
<svg xmlns="http://www.w3.org/2000/svg" xmlns:xlink="http://www.w3.org/1999/xlink" width="375pt" height="374.999991pt" viewBox="0 0 375 374.999991" version="1.2">
<defs>
<clipPath id="clip1">
  <path d="M 159 5.410156 L 216 5.410156 L 216 195 L 159 195 Z M 159 5.410156 "/>
</clipPath>
<clipPath id="clip2">
  <path d="M 10 85 L 364.707031 85 L 364.707031 303.910156 L 10 303.910156 Z M 10 85 "/>
</clipPath>
</defs>
<g id="surface1">
<g clip-path="url(#clip1)" clip-rule="nonzero">
<path style=" stroke:none;fill-rule:nonzero;fill:rgb(32.939148%,32.939148%,32.939148%);fill-opacity:1;" d="M 166.429688 17.621094 C 166.429688 14.605469 168.875 12.15625 171.875 12.15625 L 202.6875 12.15625 C 205.699219 12.15625 208.144531 14.605469 208.144531 17.621094 L 208.144531 33.015625 L 166.429688 33.015625 Z M 204.207031 161.945312 L 204.007812 162.199219 L 190.429688 180.03125 L 184.289062 180.03125 L 170.699219 162.175781 L 170.492188 161.921875 L 169.703125 160.867188 L 178.402344 152.15625 L 187.683594 161.457031 L 196.96875 152.15625 L 205.300781 160.503906 Z M 159.703125 37.417969 L 159.703125 159.285156 L 159.625 159.285156 C 159.625 159.328125 159.625 159.363281 159.625 159.363281 C 159.625 159.515625 159.667969 159.695312 159.667969 159.847656 C 159.667969 159.894531 159.667969 159.925781 159.703125 160.003906 C 159.746094 160.191406 159.8125 160.382812 159.890625 160.570312 C 159.933594 160.601562 159.933594 160.636719 159.96875 160.714844 C 160.046875 160.867188 160.121094 160.980469 160.1875 161.089844 C 160.234375 161.136719 160.265625 161.210938 160.300781 161.246094 C 160.34375 161.277344 160.34375 161.324219 160.378906 161.355469 L 184.652344 193.246094 C 185.296875 194.066406 186.3125 194.597656 187.363281 194.597656 C 188.414062 194.597656 189.421875 194.097656 190.0625 193.246094 L 214.339844 161.355469 C 214.375 161.324219 214.375 161.277344 214.417969 161.246094 C 214.453125 161.210938 214.496094 161.136719 214.527344 161.089844 C 214.605469 160.980469 214.671875 160.824219 214.75 160.714844 C 214.792969 160.679688 214.792969 160.636719 214.828125 160.570312 C 214.90625 160.382812 214.9375 160.191406 215.015625 160.003906 C 215.015625 159.960938 215.015625 159.925781 215.050781 159.847656 C 215.09375 159.695312 215.09375 159.515625 215.09375 159.363281 C 215.09375 159.328125 215.09375 159.285156 215.09375 159.285156 L 215.09375 37.230469 C 215.09375 36.886719 215.039062 36.554688 214.9375 36.230469 L 214.9375 17.621094 C 214.9375 10.847656 209.460938 5.351562 202.6875 5.351562 L 171.875 5.351562 C 165.113281 5.351562 159.589844 10.847656 159.589844 17.65625 L 159.589844 36.441406 C 159.589844 36.742188 159.636719 37.039062 159.703125 37.316406 C 159.703125 37.351562 159.703125 37.382812 159.703125 37.417969 "/>
</g>
<g clip-path="url(#clip2)" clip-rule="nonzero">
<path style=" stroke:none;fill-rule:nonzero;fill:rgb(32.939148%,32.939148%,32.939148%);fill-opacity:1;" d="M 330.300781 272.816406 L 330.300781 116.953125 C 330.300781 99.421875 316.105469 85.222656 298.601562 85.222656 L 232.742188 85.222656 L 232.742188 108.144531 L 298.601562 108.144531 C 303.457031 108.144531 307.394531 112.089844 307.394531 116.953125 L 307.394531 272.816406 L 227.375 272.816406 C 226.855469 274.257812 226.148438 275.621094 225.273438 276.859375 C 222.074219 281.484375 216.699219 284.507812 210.679688 284.507812 L 163.984375 284.507812 C 157.964844 284.507812 152.585938 281.484375 149.378906 276.859375 C 148.515625 275.621094 147.808594 274.257812 147.289062 272.816406 L 67.265625 272.816406 L 67.265625 116.953125 C 67.265625 112.089844 71.207031 108.144531 76.0625 108.144531 L 142 108.144531 L 142.03125 85.222656 L 76.0625 85.222656 C 58.558594 85.222656 44.363281 99.421875 44.363281 116.953125 L 44.363281 272.816406 L 10.050781 272.816406 L 10.050781 272.894531 C 10.050781 279.308594 14.398438 285.261719 19.796875 290.214844 C 23.050781 293.210938 28.152344 295.738281 33.472656 297.777344 C 39.226562 299.980469 48.378906 301.578125 55.792969 302.585938 C 62.554688 303.539062 69.390625 303.972656 76.230469 303.972656 L 187.332031 303.917969 L 298.433594 303.972656 C 305.273438 303.972656 312.109375 303.539062 318.871094 302.585938 C 326.285156 301.578125 335.433594 299.980469 341.1875 297.777344 C 346.5 295.738281 351.613281 293.210938 354.863281 290.214844 C 360.265625 285.261719 364.613281 279.308594 364.613281 272.894531 L 364.613281 272.816406 L 330.300781 272.816406 "/>
</g>
</g>
</svg>
