<?xml version="1.0" encoding="UTF-8"?>
<svg xmlns="http://www.w3.org/2000/svg" xmlns:xlink="http://www.w3.org/1999/xlink" width="375pt" height="374.999991pt" viewBox="0 0 375 374.999991" version="1.2">
<g id="surface1">
<path style=" stroke:none;fill-rule:nonzero;fill:rgb(32.939148%,32.939148%,32.939148%);fill-opacity:1;" d="M 175.1875 347.816406 L 169.707031 332.730469 L 216.640625 332.730469 Z M 373.847656 282.085938 L 353.445312 226.058594 C 352.292969 222.890625 348.734375 221.230469 345.5625 222.382812 C 342.367188 223.5625 340.734375 227.09375 341.886719 230.289062 L 360.175781 280.5 L 331.144531 291.046875 L 331.144531 129.769531 C 331.144531 126.382812 328.382812 123.621094 324.992188 123.621094 C 321.605469 123.621094 318.84375 126.382812 318.84375 129.769531 L 318.84375 320.429688 L 134.285156 320.429688 C 130.898438 320.429688 128.132812 323.191406 128.132812 326.578125 C 128.132812 329.964844 130.898438 332.730469 134.285156 332.730469 L 156.609375 332.730469 L 165.71875 357.785156 C 166.296875 359.324219 167.425781 360.574219 168.914062 361.269531 C 169.730469 361.652344 170.621094 361.847656 171.511719 361.847656 C 172.207031 361.847656 172.929688 361.726562 173.601562 361.460938 L 252.613281 332.730469 L 324.992188 332.730469 C 328.382812 332.730469 331.144531 329.964844 331.144531 326.578125 L 331.144531 304.140625 L 370.171875 289.964844 C 371.683594 289.386719 372.933594 288.257812 373.632812 286.769531 C 374.328125 285.304688 374.402344 283.597656 373.847656 282.085938 "/>
<path style=" stroke:none;fill-rule:nonzero;fill:rgb(32.939148%,32.939148%,32.939148%);fill-opacity:1;" d="M 263.378906 14.644531 L 271.71875 37.515625 L 200.539062 37.515625 Z M 109.679688 203.835938 L 109.679688 221.253906 C 109.679688 224.644531 112.441406 227.40625 115.832031 227.40625 C 119.21875 227.40625 121.984375 224.644531 121.984375 221.253906 L 121.984375 49.816406 L 318.84375 49.816406 L 318.84375 105.167969 C 318.84375 108.558594 321.605469 111.320312 324.992188 111.320312 C 328.382812 111.320312 331.144531 108.558594 331.144531 105.167969 L 331.144531 43.667969 C 331.144531 40.28125 328.382812 37.515625 324.992188 37.515625 L 284.816406 37.515625 L 272.847656 4.652344 C 271.695312 1.480469 268.136719 -0.179688 264.964844 0.976562 L 164.566406 37.515625 L 115.832031 37.515625 C 112.441406 37.515625 109.679688 40.28125 109.679688 43.667969 L 109.679688 167.898438 L 78.390625 81.960938 L 95.742188 75.644531 C 98.9375 74.488281 100.570312 70.957031 99.417969 67.761719 C 98.265625 64.566406 94.730469 62.933594 91.535156 64.085938 L 68.417969 72.519531 C 65.222656 73.671875 63.5625 77.203125 64.742188 80.375 L 109.679688 203.835938 "/>
<path style=" stroke:none;fill-rule:nonzero;fill:rgb(32.939148%,32.939148%,32.939148%);fill-opacity:1;" d="M 294.234375 80.566406 L 183.5 80.566406 C 180.113281 80.566406 177.347656 83.332031 177.347656 86.71875 C 177.347656 90.105469 180.113281 92.867188 183.5 92.867188 L 294.234375 92.867188 C 297.621094 92.867188 300.386719 90.105469 300.386719 86.71875 C 300.386719 83.332031 297.621094 80.566406 294.234375 80.566406 "/>
<path style=" stroke:none;fill-rule:nonzero;fill:rgb(32.939148%,32.939148%,32.939148%);fill-opacity:1;" d="M 288.082031 166.671875 L 238.867188 166.671875 L 238.867188 117.46875 L 288.082031 117.46875 Z M 300.386719 111.320312 C 300.386719 107.933594 297.621094 105.167969 294.234375 105.167969 L 232.714844 105.167969 C 229.328125 105.167969 226.5625 107.933594 226.5625 111.320312 L 226.5625 172.820312 C 226.5625 176.210938 229.328125 178.972656 232.714844 178.972656 L 294.234375 178.972656 C 297.621094 178.972656 300.386719 176.210938 300.386719 172.820312 L 300.386719 111.320312 "/>
<path style=" stroke:none;fill-rule:nonzero;fill:rgb(32.939148%,32.939148%,32.939148%);fill-opacity:1;" d="M 201.957031 117.46875 L 165.046875 117.46875 C 161.65625 117.46875 158.894531 120.234375 158.894531 123.621094 C 158.894531 127.007812 161.65625 129.769531 165.046875 129.769531 L 201.957031 129.769531 C 205.34375 129.769531 208.109375 127.007812 208.109375 123.621094 C 208.109375 120.234375 205.34375 117.46875 201.957031 117.46875 "/>
<path style=" stroke:none;fill-rule:nonzero;fill:rgb(32.939148%,32.939148%,32.939148%);fill-opacity:1;" d="M 201.957031 142.070312 L 146.589844 142.070312 C 143.203125 142.070312 140.4375 144.832031 140.4375 148.222656 C 140.4375 151.609375 143.203125 154.371094 146.589844 154.371094 L 201.957031 154.371094 C 205.34375 154.371094 208.109375 151.609375 208.109375 148.222656 C 208.109375 144.832031 205.34375 142.070312 201.957031 142.070312 "/>
<path style=" stroke:none;fill-rule:nonzero;fill:rgb(32.939148%,32.939148%,32.939148%);fill-opacity:1;" d="M 201.957031 166.671875 L 146.589844 166.671875 C 143.203125 166.671875 140.4375 169.433594 140.4375 172.820312 C 140.4375 176.210938 143.203125 178.972656 146.589844 178.972656 L 201.957031 178.972656 C 205.34375 178.972656 208.109375 176.210938 208.109375 172.820312 C 208.109375 169.433594 205.34375 166.671875 201.957031 166.671875 "/>
<path style=" stroke:none;fill-rule:nonzero;fill:rgb(32.939148%,32.939148%,32.939148%);fill-opacity:1;" d="M 201.957031 191.273438 L 146.589844 191.273438 C 143.203125 191.273438 140.4375 194.035156 140.4375 197.421875 C 140.4375 200.8125 143.203125 203.574219 146.589844 203.574219 L 201.957031 203.574219 C 205.34375 203.574219 208.109375 200.8125 208.109375 197.421875 C 208.109375 194.035156 205.34375 191.273438 201.957031 191.273438 "/>
<path style=" stroke:none;fill-rule:nonzero;fill:rgb(32.939148%,32.939148%,32.939148%);fill-opacity:1;" d="M 294.234375 191.273438 L 238.867188 191.273438 C 235.480469 191.273438 232.714844 194.035156 232.714844 197.421875 C 232.714844 200.8125 235.480469 203.574219 238.867188 203.574219 L 294.234375 203.574219 C 297.621094 203.574219 300.386719 200.8125 300.386719 197.421875 C 300.386719 194.035156 297.621094 191.273438 294.234375 191.273438 "/>
<path style=" stroke:none;fill-rule:nonzero;fill:rgb(32.939148%,32.939148%,32.939148%);fill-opacity:1;" d="M 294.234375 215.875 L 245.019531 215.875 C 241.632812 215.875 238.867188 218.636719 238.867188 222.023438 C 238.867188 225.410156 241.632812 228.175781 245.019531 228.175781 L 294.234375 228.175781 C 297.621094 228.175781 300.386719 225.410156 300.386719 222.023438 C 300.386719 218.636719 297.621094 215.875 294.234375 215.875 "/>
<path style=" stroke:none;fill-rule:nonzero;fill:rgb(32.939148%,32.939148%,32.939148%);fill-opacity:1;" d="M 294.234375 240.476562 L 226.5625 240.476562 C 223.175781 240.476562 220.414062 243.238281 220.414062 246.625 C 220.414062 250.011719 223.175781 252.777344 226.5625 252.777344 L 294.234375 252.777344 C 297.621094 252.777344 300.386719 250.011719 300.386719 246.625 C 300.386719 243.238281 297.621094 240.476562 294.234375 240.476562 "/>
<path style=" stroke:none;fill-rule:nonzero;fill:rgb(32.939148%,32.939148%,32.939148%);fill-opacity:1;" d="M 300.386719 271.226562 C 300.386719 267.839844 297.621094 265.074219 294.234375 265.074219 L 208.109375 265.074219 C 204.71875 265.074219 201.957031 267.839844 201.957031 271.226562 C 201.957031 274.613281 204.71875 277.375 208.109375 277.375 L 294.234375 277.375 C 297.621094 277.375 300.386719 274.613281 300.386719 271.226562 "/>
<path style=" stroke:none;fill-rule:nonzero;fill:rgb(32.939148%,32.939148%,32.939148%);fill-opacity:1;" d="M 183.5 289.675781 C 180.113281 289.675781 177.347656 292.441406 177.347656 295.828125 C 177.347656 299.214844 180.113281 301.976562 183.5 301.976562 L 245.019531 301.976562 C 248.40625 301.976562 251.171875 299.214844 251.171875 295.828125 C 251.171875 292.441406 248.40625 289.675781 245.019531 289.675781 L 183.5 289.675781 "/>
<path style=" stroke:none;fill-rule:nonzero;fill:rgb(32.939148%,32.939148%,32.939148%);fill-opacity:1;" d="M 46.503906 320.429688 L 46.527344 320.429688 L 55.730469 336.40625 L 45.085938 342.554688 C 40.808594 345.027344 35.855469 345.679688 31.074219 344.40625 C 26.316406 343.132812 22.351562 340.082031 19.875 335.804688 C 14.78125 326.988281 17.808594 315.671875 26.628906 310.601562 L 37.273438 304.453125 Z M 201.019531 231.226562 C 201.019531 231.25 201.019531 231.25 201.019531 231.25 L 201.957031 232.882812 L 176.917969 263.320312 L 161.175781 236.078125 L 200.082031 229.617188 Z M 180.785156 277.976562 L 214.164062 237.398438 C 215.796875 235.429688 216.039062 232.644531 214.742188 230.433594 L 225.410156 224.28125 C 228.34375 222.578125 229.351562 218.804688 227.644531 215.875 C 225.964844 212.941406 222.191406 211.910156 219.257812 213.617188 L 208.589844 219.765625 C 207.316406 217.554688 204.769531 216.332031 202.269531 216.785156 L 150.410156 225.386719 C 149.691406 225.53125 148.992188 225.773438 148.34375 226.132812 L 20.476562 299.933594 C 5.792969 308.417969 0.75 327.273438 9.230469 341.953125 C 14.902344 351.804688 25.285156 357.328125 35.90625 357.328125 C 41.121094 357.328125 46.40625 355.984375 51.238281 353.199219 L 79.449219 336.933594 C 82.378906 335.226562 83.390625 331.480469 81.707031 328.523438 C 80 325.59375 76.226562 324.585938 73.296875 326.265625 L 66.398438 330.253906 L 60.25 319.613281 L 134.839844 276.558594 C 137.769531 274.855469 138.78125 271.082031 137.097656 268.152344 C 135.390625 265.195312 131.644531 264.1875 128.6875 265.894531 L 54.097656 308.945312 L 47.945312 298.300781 L 149.160156 239.875 L 167.617188 271.828125 L 94.585938 313.964844 C 91.65625 315.671875 90.648438 319.441406 92.351562 322.375 C 94.058594 325.304688 97.808594 326.3125 100.738281 324.632812 L 179.105469 279.394531 C 179.753906 279.035156 180.304688 278.554688 180.785156 277.976562 "/>
</g>
</svg>
