<?xml version="1.0" encoding="UTF-8"?>
<svg xmlns="http://www.w3.org/2000/svg" xmlns:xlink="http://www.w3.org/1999/xlink" width="375pt" height="374.999991pt" viewBox="0 0 375 374.999991" version="1.2">
<defs>
<clipPath id="clip1">
  <path d="M 5 16.863281 L 348 16.863281 L 348 298 L 5 298 Z M 5 16.863281 "/>
</clipPath>
</defs>
<g id="surface1">
<g clip-path="url(#clip1)" clip-rule="nonzero">
<path style=" stroke:none;fill-rule:nonzero;fill:rgb(32.939148%,32.939148%,32.939148%);fill-opacity:1;" d="M 189.585938 298 L 33.632812 298 C 17.941406 298 5.171875 285.246094 5.171875 269.570312 L 5.171875 38.691406 C 5.171875 26.589844 15.019531 16.738281 27.132812 16.738281 L 325.789062 16.738281 C 337.902344 16.738281 347.753906 26.589844 347.753906 38.691406 L 347.753906 236.339844 C 347.753906 238.546875 345.96875 240.328125 343.761719 240.328125 C 341.550781 240.328125 339.769531 238.546875 339.769531 236.339844 L 339.769531 38.691406 C 339.769531 30.988281 333.5 24.722656 325.789062 24.722656 L 27.132812 24.722656 C 19.421875 24.722656 13.152344 30.988281 13.152344 38.691406 L 13.152344 269.570312 C 13.152344 280.84375 22.34375 290.011719 33.632812 290.011719 L 189.585938 290.011719 C 191.796875 290.011719 193.59375 291.808594 193.59375 294 C 193.59375 296.207031 191.796875 298 189.585938 298 "/>
</g>
<path style=" stroke:none;fill-rule:nonzero;fill:rgb(32.939148%,32.939148%,32.939148%);fill-opacity:1;" d="M 50.992188 49.710938 C 47.058594 49.710938 43.851562 52.898438 43.851562 56.828125 C 43.851562 60.769531 47.058594 63.960938 50.992188 63.960938 C 54.925781 63.960938 58.128906 60.769531 58.128906 56.828125 C 58.128906 52.898438 54.925781 49.710938 50.992188 49.710938 "/>
<path style=" stroke:none;fill-rule:nonzero;fill:rgb(32.939148%,32.939148%,32.939148%);fill-opacity:1;" d="M 86.875 49.710938 C 82.941406 49.710938 79.734375 52.898438 79.734375 56.828125 C 79.734375 60.769531 82.941406 63.960938 86.875 63.960938 C 90.808594 63.960938 94.015625 60.769531 94.015625 56.828125 C 94.015625 52.898438 90.808594 49.710938 86.875 49.710938 "/>
<path style=" stroke:none;fill-rule:nonzero;fill:rgb(32.939148%,32.939148%,32.939148%);fill-opacity:1;" d="M 122.761719 49.710938 C 118.828125 49.710938 115.621094 52.898438 115.621094 56.828125 C 115.621094 60.769531 118.828125 63.960938 122.761719 63.960938 C 126.695312 63.960938 129.902344 60.769531 129.902344 56.828125 C 129.902344 52.898438 126.695312 49.710938 122.761719 49.710938 "/>
<path style=" stroke:none;fill-rule:nonzero;fill:rgb(32.939148%,32.939148%,32.939148%);fill-opacity:1;" d="M 343.761719 96.25 L 9.160156 96.25 C 6.953125 96.25 5.171875 94.46875 5.171875 92.261719 C 5.171875 90.070312 6.953125 88.277344 9.160156 88.277344 L 343.761719 88.277344 C 345.96875 88.277344 347.753906 90.070312 347.753906 92.261719 C 347.753906 94.46875 345.96875 96.25 343.761719 96.25 "/>
<path style=" stroke:none;fill-rule:nonzero;fill:rgb(32.939148%,32.939148%,32.939148%);fill-opacity:1;" d="M 361.417969 362.28125 C 360.722656 362.28125 359.996094 362.09375 359.351562 361.695312 C 357.472656 360.558594 356.875 358.109375 358.011719 356.230469 C 368.730469 338.546875 355.261719 309.089844 350.816406 300.363281 C 343.988281 301.488281 337.347656 301.203125 331.050781 299.480469 C 325.035156 297.84375 321.03125 292.777344 320.875 286.554688 C 320.703125 280.390625 324.394531 275.136719 330.28125 273.1875 L 335.480469 271.464844 C 332.859375 264.628906 325.71875 256.429688 321.601562 252.257812 C 302.175781 255.972656 289.949219 241.738281 289.421875 241.097656 C 288.621094 240.140625 288.308594 238.859375 288.59375 237.636719 C 288.878906 236.410156 289.71875 235.402344 290.875 234.886719 L 306.863281 227.828125 C 259.863281 194.640625 215.96875 214.273438 215.511719 214.472656 C 213.515625 215.398438 211.148438 214.53125 210.222656 212.535156 C 209.296875 210.542969 210.167969 208.164062 212.164062 207.242188 C 214.269531 206.273438 264.410156 183.863281 317.183594 225.589844 C 318.28125 226.460938 318.835938 227.839844 318.664062 229.222656 C 318.492188 230.617188 317.59375 231.800781 316.3125 232.367188 L 299.738281 239.6875 C 304.171875 242.890625 311.878906 246.578125 321.855469 244.027344 C 323.195312 243.6875 324.609375 244.058594 325.605469 244.996094 C 327.316406 246.621094 342.378906 261.183594 344.261719 273.46875 C 344.546875 275.390625 343.417969 277.242188 341.566406 277.855469 L 332.789062 280.757812 C 329.796875 281.757812 328.796875 284.289062 328.839844 286.339844 C 328.898438 288.433594 330.066406 290.953125 333.160156 291.792969 C 339.101562 293.417969 345.472656 293.488281 352.070312 291.992188 C 353.78125 291.609375 355.546875 292.378906 356.417969 293.898438 C 357.386719 295.582031 379.902344 335.527344 364.839844 360.359375 C 364.085938 361.597656 362.773438 362.28125 361.417969 362.28125 "/>
<path style=" stroke:none;fill-rule:nonzero;fill:rgb(32.939148%,32.939148%,32.939148%);fill-opacity:1;" d="M 342.90625 366.878906 C 321.074219 366.878906 298.242188 354.007812 296.960938 353.28125 C 295.433594 352.414062 294.664062 350.664062 295.050781 348.953125 C 296.546875 342.347656 296.476562 336 294.851562 330.046875 C 294.007812 326.957031 291.488281 325.804688 289.40625 325.75 C 287.382812 325.734375 284.800781 326.703125 283.804688 329.675781 L 280.898438 338.460938 C 280.285156 340.296875 278.433594 341.4375 276.507812 341.136719 C 264.210938 339.273438 249.628906 324.210938 248.003906 322.503906 C 247.0625 321.503906 246.695312 320.097656 247.035156 318.773438 C 249.585938 308.863281 245.882812 301.132812 242.6875 296.691406 L 235.363281 313.234375 C 234.808594 314.515625 233.609375 315.398438 232.226562 315.582031 C 230.847656 315.753906 229.464844 315.199219 228.59375 314.101562 C 186.808594 261.382812 209.242188 211.296875 210.222656 209.191406 C 211.148438 207.183594 213.515625 206.316406 215.511719 207.242188 C 217.519531 208.164062 218.390625 210.542969 217.464844 212.535156 C 216.566406 214.488281 197.726562 257.125 230.816406 303.78125 L 237.902344 287.808594 C 238.398438 286.667969 239.425781 285.828125 240.636719 285.542969 C 241.863281 285.257812 243.144531 285.558594 244.113281 286.367188 C 244.742188 286.894531 258.992188 299.097656 255.273438 318.515625 C 259.464844 322.628906 267.65625 329.75 274.511719 332.367188 L 276.238281 327.171875 C 278.175781 321.304688 283.40625 317.617188 289.621094 317.777344 C 295.832031 317.945312 300.921875 321.933594 302.558594 327.953125 C 304.269531 334.246094 304.570312 340.867188 303.429688 347.6875 C 312.164062 352.128906 341.667969 365.597656 359.351562 354.875 C 361.234375 353.738281 363.699219 354.335938 364.839844 356.230469 C 365.980469 358.109375 365.382812 360.558594 363.484375 361.695312 C 357.300781 365.453125 350.160156 366.878906 342.90625 366.878906 "/>
<path style=" stroke:none;fill-rule:nonzero;fill:rgb(32.939148%,32.939148%,32.939148%);fill-opacity:1;" d="M 344.332031 345.210938 C 343.304688 345.210938 342.292969 344.8125 341.511719 344.042969 L 186.765625 189.457031 C 185.210938 187.90625 185.210938 185.371094 186.765625 183.820312 C 188.332031 182.269531 190.855469 182.269531 192.421875 183.820312 L 347.152344 338.40625 C 348.707031 339.957031 348.707031 342.476562 347.152344 344.042969 C 346.382812 344.8125 345.359375 345.210938 344.332031 345.210938 "/>
<path style=" stroke:none;fill-rule:nonzero;fill:rgb(32.939148%,32.939148%,32.939148%);fill-opacity:1;" d="M 231.445312 161.355469 L 133.976562 161.355469 C 131.769531 161.355469 129.988281 159.574219 129.988281 157.367188 C 129.988281 155.160156 131.769531 153.382812 133.976562 153.382812 L 231.445312 153.382812 C 233.640625 153.382812 235.433594 155.160156 235.433594 157.367188 C 235.433594 159.574219 233.640625 161.355469 231.445312 161.355469 "/>
<path style=" stroke:none;fill-rule:nonzero;fill:rgb(32.939148%,32.939148%,32.939148%);fill-opacity:1;" d="M 160.914062 190.625 L 133.976562 190.625 C 131.769531 190.625 129.988281 188.847656 129.988281 186.640625 C 129.988281 184.433594 131.769531 182.652344 133.976562 182.652344 L 160.914062 182.652344 C 163.121094 182.652344 164.902344 184.433594 164.902344 186.640625 C 164.902344 188.847656 163.121094 190.625 160.914062 190.625 "/>
</g>
</svg>
