<?xml version="1.0" encoding="UTF-8"?>
<svg xmlns="http://www.w3.org/2000/svg" xmlns:xlink="http://www.w3.org/1999/xlink" width="375pt" height="374.999991pt" viewBox="0 0 375 374.999991" version="1.2">
<defs>
<clipPath id="clip1">
  <path d="M 20.164062 6.839844 L 263 6.839844 L 263 369.839844 L 20.164062 369.839844 Z M 20.164062 6.839844 "/>
</clipPath>
<clipPath id="clip2">
  <path d="M 289 47 L 356.914062 47 L 356.914062 343 L 289 343 Z M 289 47 "/>
</clipPath>
</defs>
<g id="surface1">
<path style=" stroke:none;fill-rule:nonzero;fill:rgb(32.939148%,32.939148%,32.939148%);fill-opacity:1;" d="M 74.085938 10.777344 L 24.171875 60.617188 L 74.085938 60.617188 Z M 74.085938 10.777344 "/>
<g clip-path="url(#clip1)" clip-rule="nonzero">
<path style=" stroke:none;fill-rule:nonzero;fill:rgb(32.939148%,32.939148%,32.939148%);fill-opacity:1;" d="M 255.863281 6.839844 L 87.550781 6.839844 L 87.550781 67.339844 C 87.550781 71.050781 84.535156 74.0625 80.820312 74.0625 L 20.226562 74.0625 L 20.226562 363.117188 C 20.226562 366.835938 23.242188 369.839844 26.957031 369.839844 L 255.863281 369.839844 C 259.585938 369.839844 262.59375 366.835938 262.59375 363.117188 L 262.59375 13.5625 C 262.59375 9.851562 259.585938 6.839844 255.863281 6.839844 Z M 215.46875 302.617188 L 67.355469 302.617188 C 63.636719 302.617188 60.621094 299.613281 60.621094 295.894531 C 60.621094 292.179688 63.636719 289.171875 67.355469 289.171875 L 215.46875 289.171875 C 219.191406 289.171875 222.199219 292.179688 222.199219 295.894531 C 222.199219 299.613281 219.191406 302.617188 215.46875 302.617188 Z M 215.46875 262.285156 L 67.355469 262.285156 C 63.636719 262.285156 60.621094 259.277344 60.621094 255.5625 C 60.621094 251.84375 63.636719 248.839844 67.355469 248.839844 L 215.46875 248.839844 C 219.191406 248.839844 222.199219 251.84375 222.199219 255.5625 C 222.199219 259.277344 219.191406 262.285156 215.46875 262.285156 Z M 215.46875 221.949219 L 67.355469 221.949219 C 63.636719 221.949219 60.621094 218.945312 60.621094 215.230469 C 60.621094 211.511719 63.636719 208.507812 67.355469 208.507812 L 215.46875 208.507812 C 219.191406 208.507812 222.199219 211.511719 222.199219 215.230469 C 222.199219 218.945312 219.191406 221.949219 215.46875 221.949219 Z M 215.46875 181.617188 L 67.355469 181.617188 C 63.636719 181.617188 60.621094 178.605469 60.621094 174.894531 C 60.621094 171.183594 63.636719 168.171875 67.355469 168.171875 L 215.46875 168.171875 C 219.191406 168.171875 222.199219 171.183594 222.199219 174.894531 C 222.199219 178.605469 219.191406 181.617188 215.46875 181.617188 Z M 215.46875 141.285156 L 67.355469 141.285156 C 63.636719 141.285156 60.621094 138.273438 60.621094 134.5625 C 60.621094 130.851562 63.636719 127.839844 67.355469 127.839844 L 215.46875 127.839844 C 219.191406 127.839844 222.199219 130.851562 222.199219 134.5625 C 222.199219 138.273438 219.191406 141.285156 215.46875 141.285156 Z M 215.46875 100.949219 L 121.214844 100.949219 C 117.496094 100.949219 114.480469 97.9375 114.480469 94.230469 C 114.480469 90.519531 117.496094 87.507812 121.214844 87.507812 L 215.46875 87.507812 C 219.191406 87.507812 222.199219 90.519531 222.199219 94.230469 C 222.199219 97.9375 219.191406 100.949219 215.46875 100.949219 Z M 215.46875 60.617188 L 121.214844 60.617188 C 117.496094 60.617188 114.480469 57.605469 114.480469 53.894531 C 114.480469 50.183594 117.496094 47.171875 121.214844 47.171875 L 215.46875 47.171875 C 219.191406 47.171875 222.199219 50.183594 222.199219 53.894531 C 222.199219 57.605469 219.191406 60.617188 215.46875 60.617188 Z M 215.46875 60.617188 "/>
</g>
<g clip-path="url(#clip2)" clip-rule="nonzero">
<path style=" stroke:none;fill-rule:nonzero;fill:rgb(32.939148%,32.939148%,32.939148%);fill-opacity:1;" d="M 350.117188 74.0625 L 329.921875 74.0625 L 329.921875 53.894531 C 329.921875 50.183594 326.910156 47.171875 323.1875 47.171875 L 296.257812 47.171875 C 292.535156 47.171875 289.527344 50.183594 289.527344 53.894531 L 289.527344 282.449219 C 289.527344 283.171875 289.648438 283.890625 289.875 284.574219 L 302.992188 323.867188 L 302.992188 336.230469 C 302.992188 339.945312 306 342.949219 309.722656 342.949219 C 313.445312 342.949219 316.457031 339.945312 316.457031 336.230469 L 316.457031 323.867188 L 329.570312 284.574219 C 329.800781 283.890625 329.921875 283.171875 329.921875 282.449219 L 329.921875 87.507812 L 343.386719 87.507812 L 343.386719 134.5625 C 343.386719 138.273438 346.394531 141.285156 350.117188 141.285156 C 353.839844 141.285156 356.851562 138.273438 356.851562 134.5625 L 356.851562 80.785156 C 356.851562 77.074219 353.839844 74.0625 350.117188 74.0625 Z M 350.117188 74.0625 "/>
</g>
</g>
</svg>
