<?xml version="1.0" encoding="UTF-8"?>
<svg xmlns="http://www.w3.org/2000/svg" xmlns:xlink="http://www.w3.org/1999/xlink" width="375pt" height="374.999991pt" viewBox="0 0 375 374.999991" version="1.2">
<defs>
<clipPath id="clip1">
  <path d="M 18.75 25.171875 L 365.25 25.171875 L 365.25 312.246094 L 18.75 312.246094 Z M 18.75 25.171875 "/>
</clipPath>
</defs>
<g id="surface1">
<g clip-path="url(#clip1)" clip-rule="nonzero">
<path style=" stroke:none;fill-rule:nonzero;fill:rgb(13.729858%,12.159729%,12.548828%);fill-opacity:1;" d="M 362.265625 92.820312 C 362.261719 92.824219 229.226562 193.445312 172.058594 238.363281 C 150.3125 255.457031 128.058594 272.765625 107.53125 285.746094 C 97.269531 292.234375 87.441406 297.636719 78.371094 301.394531 C 69.296875 305.15625 60.996094 307.246094 53.832031 307.242188 C 49.351562 307.238281 45.324219 306.4375 41.722656 304.753906 C 38.121094 303.066406 34.917969 300.496094 32.09375 296.78125 C 26.316406 289.160156 23.988281 281.5 23.976562 273.78125 C 23.976562 268.878906 24.9375 263.941406 26.660156 259.035156 C 29.664062 250.453125 35.007812 241.988281 41.371094 234.164062 C 50.914062 222.421875 62.726562 212.140625 72.136719 204.824219 C 76.84375 201.167969 80.945312 198.246094 83.867188 196.246094 C 85.332031 195.246094 86.496094 194.476562 87.289062 193.957031 C 87.6875 193.699219 87.992188 193.503906 88.199219 193.375 C 88.300781 193.308594 88.378906 193.261719 88.429688 193.230469 L 88.503906 193.183594 L 88.617188 193.113281 L 274.09375 47.765625 L 274.136719 47.726562 L 274.148438 47.722656 C 274.386719 47.515625 279.605469 43.0625 287.265625 38.710938 C 291.089844 36.535156 295.519531 34.382812 300.21875 32.792969 C 304.917969 31.195312 309.875 30.164062 314.757812 30.164062 C 318.761719 30.167969 322.710938 30.851562 326.507812 32.480469 C 330.304688 34.113281 333.96875 36.691406 337.402344 40.597656 C 341.816406 45.613281 344.777344 50.417969 346.640625 54.953125 C 348.496094 59.492188 349.265625 63.769531 349.269531 67.808594 C 349.265625 73.355469 347.804688 78.476562 345.558594 83.09375 C 342.199219 90.011719 337.054688 95.742188 332.742188 99.695312 C 330.589844 101.675781 328.652344 103.214844 327.261719 104.25 C 326.5625 104.769531 326.007812 105.164062 325.625 105.421875 C 325.4375 105.550781 325.292969 105.648438 325.199219 105.707031 L 325.097656 105.777344 L 325.070312 105.789062 L 325.070312 105.792969 L 324.984375 105.847656 L 159.660156 230.878906 L 159.652344 230.886719 C 159.535156 230.972656 156.230469 233.460938 151.257812 235.882812 C 146.292969 238.316406 139.667969 240.65625 133.019531 240.644531 C 129.449219 240.640625 125.878906 239.992188 122.4375 238.363281 C 118.996094 236.730469 115.644531 234.121094 112.539062 230.042969 C 109.542969 226.097656 107.542969 222.390625 106.285156 218.933594 C 105.03125 215.472656 104.515625 212.261719 104.515625 209.277344 C 104.515625 205.28125 105.441406 201.671875 106.855469 198.457031 C 108.976562 193.640625 112.21875 189.742188 114.9375 187.078125 C 116.296875 185.746094 117.523438 184.722656 118.394531 184.039062 C 118.828125 183.699219 119.175781 183.441406 119.410156 183.273438 C 119.527344 183.191406 119.613281 183.132812 119.667969 183.09375 L 119.726562 183.054688 L 119.738281 183.050781 L 119.738281 183.046875 L 119.804688 183.003906 L 272.234375 67.722656 L 269.210938 63.746094 L 116.890625 178.945312 C 116.265625 179.371094 112.292969 182.136719 108.265625 186.945312 C 106.105469 189.527344 103.929688 192.707031 102.277344 196.445312 C 100.628906 200.1875 99.511719 204.503906 99.515625 209.277344 C 99.511719 212.839844 100.132812 216.648438 101.582031 220.632812 C 103.03125 224.613281 105.296875 228.769531 108.554688 233.054688 C 112.085938 237.707031 116.097656 240.894531 120.292969 242.875 C 124.488281 244.859375 128.839844 245.636719 133.019531 245.636719 C 140.949219 245.625 148.300781 242.902344 153.714844 240.238281 C 159.125 237.566406 162.605469 234.917969 162.691406 234.851562 L 162.683594 234.855469 L 327.859375 109.9375 C 328.707031 109.378906 334.792969 105.328125 340.949219 98.507812 C 344.238281 94.867188 347.546875 90.425781 350.054688 85.273438 C 352.566406 80.125 354.273438 74.242188 354.273438 67.808594 C 354.273438 63.132812 353.367188 58.175781 351.269531 53.058594 C 349.167969 47.945312 345.886719 42.675781 341.164062 37.304688 C 337.285156 32.890625 332.976562 29.828125 328.484375 27.898438 C 323.992188 25.96875 319.335938 25.171875 314.757812 25.171875 C 309.082031 25.175781 303.519531 26.378906 298.367188 28.152344 C 290.640625 30.808594 283.808594 34.742188 278.878906 38.015625 C 274.265625 41.078125 271.320312 43.566406 270.910156 43.917969 L 85.734375 189.027344 C 84.269531 189.945312 68.492188 199.984375 52.609375 214.914062 C 44.296875 222.738281 35.953125 231.898438 29.628906 241.867188 C 26.46875 246.855469 23.8125 252.046875 21.9375 257.386719 C 20.0625 262.726562 18.976562 268.226562 18.976562 273.78125 C 18.964844 282.527344 21.714844 291.40625 28.105469 299.792969 C 31.363281 304.085938 35.238281 307.238281 39.597656 309.269531 C 43.953125 311.3125 48.753906 312.234375 53.832031 312.230469 C 61.960938 312.226562 70.835938 309.914062 80.289062 306.003906 C 94.464844 300.125 109.988281 290.609375 126.085938 279.355469 C 142.179688 268.105469 158.832031 255.109375 175.15625 242.285156 C 203.695312 219.859375 251.238281 183.476562 291.632812 152.714844 C 311.832031 137.335938 330.246094 123.351562 343.609375 113.21875 C 350.292969 108.152344 355.714844 104.046875 359.464844 101.207031 C 361.339844 99.785156 362.796875 98.683594 363.78125 97.9375 C 364.769531 97.1875 365.289062 96.796875 365.289062 96.796875 L 362.265625 92.820312 "/>
</g>
</g>
</svg>
