<?xml version="1.0" encoding="UTF-8"?>
<svg xmlns="http://www.w3.org/2000/svg" xmlns:xlink="http://www.w3.org/1999/xlink" width="375pt" height="374.999991pt" viewBox="0 0 375 374.999991" version="1.2">
<defs>
<clipPath id="clip1">
  <path d="M 18.589844 16.410156 L 360.589844 16.410156 L 360.589844 362.917969 L 18.589844 362.917969 Z M 18.589844 16.410156 "/>
</clipPath>
</defs>
<g id="surface1">
<path style=" stroke:none;fill-rule:nonzero;fill:rgb(85.099792%,85.099792%,85.099792%);fill-opacity:1;" d="M 355.070312 123.472656 L 355.070312 200.707031 L 316.460938 162.089844 Z M 355.070312 123.472656 "/>
<path style=" stroke:none;fill-rule:nonzero;fill:rgb(92.939758%,94.898987%,95.689392%);fill-opacity:1;" d="M 355.070312 123.472656 L 316.460938 162.089844 L 355.070312 200.707031 L 195.105469 355.179688 L 57.199219 217.257812 L 121.519531 154.699219 L 189.589844 222.777344 L 228.199219 228.292969 L 222.683594 189.675781 L 155.113281 122.09375 L 255.78125 24.167969 L 355.070312 123.472656 "/>
<path style=" stroke:none;fill-rule:nonzero;fill:rgb(92.939758%,94.898987%,95.689392%);fill-opacity:1;" d="M 222.683594 189.675781 L 228.199219 228.292969 L 189.589844 222.777344 L 222.683594 189.675781 "/>
<path style=" stroke:none;fill-rule:nonzero;fill:rgb(65.098572%,65.098572%,65.098572%);fill-opacity:1;" d="M 222.683594 189.675781 L 206.136719 206.226562 L 84.78125 84.855469 L 101.328125 68.304688 L 222.683594 189.675781 "/>
<path style=" stroke:none;fill-rule:nonzero;fill:rgb(85.099792%,85.099792%,85.099792%);fill-opacity:1;" d="M 206.136719 206.226562 L 189.589844 222.777344 L 68.234375 101.40625 L 84.78125 84.855469 L 206.136719 206.226562 "/>
<path style=" stroke:none;fill-rule:nonzero;fill:rgb(92.939758%,94.898987%,95.689392%);fill-opacity:1;" d="M 101.328125 68.304688 L 68.234375 101.40625 L 51.683594 84.855469 L 84.78125 51.753906 L 101.328125 68.304688 "/>
<path style=" stroke:none;fill-rule:nonzero;fill:rgb(92.939758%,94.898987%,95.689392%);fill-opacity:1;" d="M 84.78125 51.753906 L 51.683594 84.855469 L 30.933594 64.125 C 26.582031 59.769531 24.105469 53.800781 24.105469 47.574219 C 24.105469 34.664062 34.578125 24.167969 47.484375 24.167969 C 53.730469 24.167969 59.679688 26.667969 64.03125 31.023438 L 84.78125 51.753906 "/>
<g clip-path="url(#clip1)" clip-rule="nonzero">
<path style=" stroke:none;fill-rule:nonzero;fill:rgb(11.759949%,9.01947%,7.449341%);fill-opacity:1;" d="M 65.066406 217.324219 L 121.476562 162.457031 L 186.980469 227.992188 L 234.707031 234.800781 L 227.878906 187.089844 L 162.957031 122.136719 L 255.71875 31.925781 L 347.273438 123.472656 L 308.660156 162.089844 L 347.207031 200.644531 L 195.167969 347.445312 Z M 29.621094 47.574219 C 29.621094 37.722656 37.636719 29.6875 47.503906 29.6875 C 52.289062 29.6875 56.769531 31.5625 60.152344 34.921875 L 76.980469 51.753906 L 51.683594 77.054688 L 34.855469 60.222656 C 31.472656 56.859375 29.621094 52.355469 29.621094 47.574219 Z M 206.136719 198.425781 L 92.582031 84.855469 L 101.328125 76.105469 L 214.882812 189.675781 Z M 84.78125 92.65625 L 198.335938 206.226562 L 189.589844 214.976562 L 76.035156 101.40625 Z M 68.234375 93.605469 L 59.484375 84.855469 L 84.78125 59.554688 L 93.53125 68.304688 Z M 221.695312 221.808594 L 201.289062 218.875 L 218.785156 201.378906 Z M 324.257812 162.089844 L 349.554688 136.789062 L 349.554688 187.390625 Z M 255.847656 16.433594 L 155.15625 114.335938 L 67.953125 27.121094 C 62.5 21.667969 55.238281 18.652344 47.503906 18.652344 C 31.558594 18.652344 18.589844 31.625 18.589844 47.574219 C 18.589844 55.308594 21.605469 62.570312 27.054688 68.023438 L 113.675781 154.65625 L 49.335938 217.214844 L 195.039062 362.917969 L 360.589844 203.058594 L 360.589844 121.1875 L 255.847656 16.433594 "/>
</g>
</g>
</svg>
